# xmcd
#
# Track frame offsets: 
#        150
#        18624
#        35718
#        49223
#        67113
#        86228
#        105351
#        122728
#        139825
#        156491
#
# Disc length: 2293 seconds
#
# Revision: 0
# Processed by: cddbd v1.5.2PL0 Copyright (c) Steve Scherf et al.
# Submitted via: ExactAudioCopy v0.95b4
#
DISCID=9208f30a
DTITLE=FONOGRAF - Contry and Eastern
DYEAR=1980
DGENRE=Country
TTITLE0=Silver Dancer
TTITLE1=Bluebirds
TTITLE2=Greyhound
TTITLE3=Brand New Day
TTITLE4=Always Find A Reason
TTITLE5=Come Back Tomorrow
TTITLE6=Heaven Is In Your Eyes
TTITLE7=Under The Moonlight
TTITLE8=Lonesome Once Again
TTITLE9=Blow Me Back Santa Ana
EXTD=
EXTT0=
EXTT1=
EXTT2=
EXTT3=
EXTT4=
EXTT5=
EXTT6=
EXTT7=
EXTT8=
EXTT9=
PLAYORDER=
